<svg xmlns="http://www.w3.org/2000/svg" width="48" height="48" viewBox="0 0 48 48">

    <!-- LIKE -->
    <g id="like">
        <path fill="currentColor"
              d="M34 9c-4.2 0-7.9 2.1-10 5.4C21.9 11.1 18.2 9 14 9C7.4 9 2 14.4 2 21c0 11.9 22 24 22 24s22-12 22-24c0-6.6-5.4-12-12-12z"/>
    </g>

    <g id="follow">
        <path fill="currentColor"
              d="M32 14h-4v-4h-2v4h-4v2h4v4h2v-4h4zM12 4a5 5 0 1 1-5 5a5 5 0 0 1 5-5m0-2a7 7 0 1 0 7 7a7 7 0 0 0-7-7m10 28h-2v-5a5 5 0 0 0-5-5H9a5 5 0 0 0-5 5v5H2v-5a7 7 0 0 1 7-7h6a7 7 0 0 1 7 7z"/>
    </g>

    <g id="unfollow">
        <path fill="currentColor"
              d="M14 14.252v2.09A6 6 0 0 0 6 22H4a8 8 0 0 1 10-7.749M12 13c-3.315 0-6-2.685-6-6s2.685-6 6-6s6 2.685 6 6s-2.685 6-6 6m0-2c2.21 0 4-1.79 4-4s-1.79-4-4-4s-4 1.79-4 4s1.79 4 4 4m7 6.586l2.121-2.121l1.415 1.414L20.414 19l2.121 2.121l-1.414 1.415L19 20.414l-2.121 2.121l-1.415-1.414L17.587 19l-2.121-2.121l1.414-1.415L19 17.587"/>
    </g>

    <!--    logo for go-to-top-->
    <g id="top">
        <g id="btn-go-top" clip-path="url(#clip0_20_2005)">
            <rect id="Rectangle 17" width="30" height="30" fill="black" fill-opacity="0.3"/>
            <path id="Vector"
                  d="M13.8072 11.2806V22H16.1928V11.2806L21.3134 16.0812L23 14.5L15 7L7 14.5L8.6866 16.0812L13.8072 11.2806Z"
                  fill="currentColor"/>
        </g>
        <defs>
            <clipPath id="clip0_20_2005">
                <rect width="30" height="30" fill="currentColor"/>
            </clipPath>
        </defs>
    </g>

    <!--    logo's for links-->
    <g id="instagram">
        <path fill="currentColor"
              d="M7.8 2h8.4C19.4 2 22 4.6 22 7.8v8.4a5.8 5.8 0 0 1-5.8 5.8H7.8C4.6 22 2 19.4 2 16.2V7.8A5.8 5.8 0 0 1 7.8 2m-.2 2A3.6 3.6 0 0 0 4 7.6v8.8C4 18.39 5.61 20 7.6 20h8.8a3.6 3.6 0 0 0 3.6-3.6V7.6C20 5.61 18.39 4 16.4 4H7.6m9.65 1.5a1.25 1.25 0 0 1 1.25 1.25A1.25 1.25 0 0 1 17.25 8A1.25 1.25 0 0 1 16 6.75a1.25 1.25 0 0 1 1.25-1.25M12 7a5 5 0 0 1 5 5a5 5 0 0 1-5 5a5 5 0 0 1-5-5a5 5 0 0 1 5-5m0 2a3 3 0 0 0-3 3a3 3 0 0 0 3 3a3 3 0 0 0 3-3a3 3 0 0 0-3-3Z"/>
    </g>

    <g id="linkedin">
        <path fill="currentColor"
              d="M19 3a2 2 0 0 1 2 2v14a2 2 0 0 1-2 2H5a2 2 0 0 1-2-2V5a2 2 0 0 1 2-2h14m-.5 15.5v-5.3a3.26 3.26 0 0 0-3.26-3.26c-.85 0-1.84.52-2.32 1.3v-1.11h-2.79v8.37h2.79v-4.93c0-.77.62-1.4 1.39-1.4a1.4 1.4 0 0 1 1.4 1.4v4.93h2.79M6.88 8.56a1.68 1.68 0 0 0 1.68-1.68c0-.93-.75-1.69-1.68-1.69a1.69 1.69 0 0 0-1.69 1.69c0 .93.76 1.68 1.69 1.68m1.39 9.94v-8.37H5.5v8.37h2.77Z"/>
    </g>

    <g id="telegram">
        <path fill="currentColor"
              d="M12 2C6.48 2 2 6.48 2 12s4.48 10 10 10s10-4.48 10-10S17.52 2 12 2zm4.64 6.8c-.15 1.58-.8 5.42-1.13 7.19c-.14.75-.42 1-.68 1.03c-.58.05-1.02-.38-1.58-.75c-.88-.58-1.38-.94-2.23-1.5c-.99-.65-.35-1.01.22-1.59c.15-.15 2.71-2.48 2.76-2.69a.2.2 0 0 0-.05-.18c-.06-.05-.14-.03-.21-.02c-.09.02-1.49.95-4.22 2.79c-.4.27-.76.41-1.08.4c-.36-.01-1.04-.2-1.55-.37c-.63-.2-1.12-.31-1.08-.66c.02-.18.27-.36.74-.55c2.92-1.27 4.86-2.11 5.83-2.51c2.78-1.16 3.35-1.36 3.73-1.36c.08 0 .27.02.39.12c.1.08.13.19.14.27c-.01.06.01.24 0 .38z"/>
    </g>

    <g id="gmail">
        <path fill="currentColor"
              d="M20 18h-2V9.25L12 13L6 9.25V18H4V6h1.2l6.8 4.25L18.8 6H20m0-2H4c-1.11 0-2 .89-2 2v12a2 2 0 0 0 2 2h16a2 2 0 0 0 2-2V6a2 2 0 0 0-2-2Z"/>
    </g>

    <!--    icons for Login input-->
    <g id="see">
        <path fill="currentColor"
              d="M12 9a3 3 0 0 0-3 3a3 3 0 0 0 3 3a3 3 0 0 0 3-3a3 3 0 0 0-3-3m0 8a5 5 0 0 1-5-5a5 5 0 0 1 5-5a5 5 0 0 1 5 5a5 5 0 0 1-5 5m0-12.5C7 4.5 2.73 7.61 1 12c1.73 4.39 6 7.5 11 7.5s9.27-3.11 11-7.5c-1.73-4.39-6-7.5-11-7.5"/>
    </g>

    <g id="noSee">
        <path fill="currentColor" d="M12.49 9.94A2.5 2.5 0 0 0 10 7.5z"/>
        <path fill="currentColor"
              d="M8.2 5.9a4.38 4.38 0 0 1 1.8-.4a4.5 4.5 0 0 1 4.5 4.5a4.34 4.34 0 0 1-.29 1.55L17 14.14A14 14 0 0 0 20 10s-3-7-10-7a9.63 9.63 0 0 0-4 .85zM2 2L1 3l2.55 2.4A13.89 13.89 0 0 0 0 10s3 7 10 7a9.67 9.67 0 0 0 4.64-1.16L18 19l1-1zm8 12.5A4.5 4.5 0 0 1 5.5 10a4.45 4.45 0 0 1 .6-2.2l1.53 1.44a2.47 2.47 0 0 0-.13.76a2.49 2.49 0 0 0 3.41 2.32l1.54 1.45a4.47 4.47 0 0 1-2.45.73"/>
    </g>
</svg>