<svg xmlns="http://www.w3.org/2000/svg" width="48" height="48" viewBox="0 0 48 48">

    <!-- LIKE -->
    <g id="like">
        <path fill="currentColor"
              d="M34 9c-4.2 0-7.9 2.1-10 5.4C21.9 11.1 18.2 9 14 9C7.4 9 2 14.4 2 21c0 11.9 22 24 22 24s22-12 22-24c0-6.6-5.4-12-12-12z"/>
    </g>

    <g id="follow">
        <path fill="currentColor"
              d="M32 14h-4v-4h-2v4h-4v2h4v4h2v-4h4zM12 4a5 5 0 1 1-5 5a5 5 0 0 1 5-5m0-2a7 7 0 1 0 7 7a7 7 0 0 0-7-7m10 28h-2v-5a5 5 0 0 0-5-5H9a5 5 0 0 0-5 5v5H2v-5a7 7 0 0 1 7-7h6a7 7 0 0 1 7 7z"/>
    </g>

    <g id="unfollow">
        <path fill="currentColor"
              d="M14 14.252v2.09A6 6 0 0 0 6 22H4a8 8 0 0 1 10-7.749M12 13c-3.315 0-6-2.685-6-6s2.685-6 6-6s6 2.685 6 6s-2.685 6-6 6m0-2c2.21 0 4-1.79 4-4s-1.79-4-4-4s-4 1.79-4 4s1.79 4 4 4m7 6.586l2.121-2.121l1.415 1.414L20.414 19l2.121 2.121l-1.414 1.415L19 20.414l-2.121 2.121l-1.415-1.414L17.587 19l-2.121-2.121l1.414-1.415L19 17.587"/>
    </g>
</svg>