<svg xmlns="http://www.w3.org/2000/svg" width="24" height="25" viewBox="0 0 24 25" fill="none">
    <g id="mypage">
        <path d="M11.3445 5.79787C11.6458 5.40071 12.2485 5.40071 12.6502 5.79787L19.781 12.7482C20.1828 13.0461 19.9819 13.344 19.5802 13.4433L18 13.5V18.5C18 19.5 18 19.5 17 19.5H14.4954C14.2158 19.5 14 19.2802 14 19.009V15.4979C14 14.3983 13.1046 13.5 12 13.5C10.8877 13.5 10 14.3945 10 15.4979V19.009C10 19.2721 9.77821 19.5 9.50461 19.5H7C6 19.5 6 19.5 6 18.5V13.5L4.51502 13.4433C4.01284 13.4433 3.81198 13.1454 4.21371 12.7482L11.3445 5.79787Z"
              fill="#2A5885"/>
    </g>

    <g id="news">
        <path fill-rule="evenodd" clip-rule="evenodd"
              d="M8.00247 19.5H4.99118C4.44956 19.5 4 19.0543 4 18.5046V9.5H6V15.9966C6 16.2671 6.2232 16.5 6.49852 16.5H7V6.50684C7 5.95077 7.45576 5.5 8.00247 5.5H17.9975C18.5512 5.5 19 5.94994 19 6.50684V18.0018C19 18.8292 18.3204 19.5 17.5045 19.5H8.00247ZM10 12.0095V8.99048C10 8.71959 10.2279 8.5 10.491 8.5H15.509C15.7802 8.5 16 8.71506 16 8.99048V12.0095C16 12.2804 15.7721 12.5 15.509 12.5H10.491C10.2198 12.5 10 12.2849 10 12.0095ZM10 14C10 14.2681 10.2198 14.5 10.491 14.5H15.509C15.7721 14.5 16 14.2761 16 14C16 13.7319 15.7802 13.5 15.509 13.5H10.491C10.2279 13.5 10 13.7239 10 14ZM10.4905 16.5C10.2196 16.5 10 16.2681 10 16C10 15.7239 10.2151 15.5 10.4905 15.5H13.5095C13.7804 15.5 14 15.7319 14 16C14 16.2761 13.7849 16.5 13.5095 16.5H10.4905Z"
              fill="#2A5885"/>
    </g>

    <g id="messages">
        <path d="M20 12.5C20 10.3945 18.4384 8.59303 16.2276 7.85596C17.0288 8.88457 17.5 10.1324 17.5 11.5C17.5 14.2047 15.6571 16.4412 13.0629 17.4394C13.3682 17.4793 13.6812 17.5 14 17.5C14.384 17.5 14.7597 17.4699 15.1236 17.4125C15.5869 18.0961 16.4302 18.5161 18.0132 18.5161C17.5754 17.8699 17.2726 17.2218 17.1869 16.7372C18.8768 15.8527 20 14.2857 20 12.5Z"
              fill="#2A5885"/>
        <path d="M5.98 17.5C7.56784 17.5 8.413 17.0858 8.8756 16.4124C9.23982 16.4699 9.61569 16.5 10 16.5C13.3137 16.5 16 14.2614 16 11.5C16 8.73858 13.3137 6.5 10 6.5C6.68629 6.5 4 8.73858 4 11.5C4 13.2848 5.12223 14.8512 6.81076 15.7359C6.73166 16.2122 6.42585 16.8571 5.98 17.5Z"
              fill="#2A5885"/>
    </g>

    <g id="friends">
        <path d="M18 17.6C18 16.2 17.4 13.5 12 13.5C6.6 13.5 6 16.1 6 17.6C6 18.3 6.36 18.5 7.8 18.5H16.32C17.76 18.5 18 18.3 18 17.6Z"
              fill="#2A5885"/>
        <path d="M9 9C9 11.3333 10.3431 12.5 12 12.5C13.6569 12.5 15 11.3333 15 9C15 6.66667 13.6569 5.5 12 5.5C10.3431 5.5 9 6.66667 9 9Z"
              fill="#2A5885"/>
    </g>

    <g id="photo">
        <path fill-rule="evenodd" clip-rule="evenodd"
              d="M18.4974 7.07562C19.3502 7.07562 20.0964 7.84033 19.9898 8.71428V16.3613C19.9898 17.2353 19.2436 18 18.3908 18H5.59898C4.74619 18 4 17.2353 4 16.3613V8.93277C4 8.05882 4.74619 7.07562 5.59898 7.07562H6.98477C7.30456 7.07562 7.51776 6.85714 7.62436 6.63866L8.15735 5.43698C8.26395 5.21849 8.58375 5 8.79695 5H15.2995C15.6193 5 15.8325 5.21849 15.9391 5.43698L16.4721 6.63866C16.5787 6.85714 16.8985 7.07562 17.1116 7.07562H18.4974ZM16 12C16 14.1714 14.1714 16 12 16C9.82857 16 8 14.1714 8 12C8 9.82857 9.82857 8 12 8C14.1714 8 16 9.82857 16 12ZM12 9.5C13.413 9.5 14.5 10.587 14.5 12C14.5 13.413 13.413 14.5 12 14.5C10.587 14.5 9.5 13.413 9.5 12C9.5 10.587 10.587 9.5 12 9.5Z"
              fill="#2A5885"/>
    </g>

    <g id="vk">
        <path fill-rule="evenodd" clip-rule="evenodd"
              d="M32.2645 1.27731C32.4956 0.52689 32.2645 0 31.1747 0H27.5585C26.6339 0 26.2211 0.47899 25.9899 1.00588C25.9899 1.00588 24.1571 5.34874 21.5482 8.14286C20.6895 8.97311 20.3428 9.21261 19.8639 9.21261C19.6328 9.21261 19.3025 8.95714 19.3025 8.20672V1.27731C19.3025 0.383192 19.0383 0 18.2623 0H12.5821C12.0207 0 11.6575 0.431092 11.6575 0.798319C11.6575 1.64454 12.9454 1.8521 13.1105 4.19916V9.34034C13.1105 10.458 12.8959 10.6655 12.4335 10.6655C11.2282 10.6655 8.22297 6.32269 6.4727 1.34118C6.10944 0.415125 5.77921 0.0159652 4.85453 0.0159652H1.2384C0.198144 0.0159652 0 0.494957 0 1.02185C0 1.9479 1.20537 6.53025 5.69664 12.5975C8.68531 16.7328 12.8959 18.984 16.7101 18.984C19.0053 18.984 19.286 18.4891 19.286 17.6429V14.4975C19.286 13.4916 19.5007 13.3 20.2437 13.3C20.7886 13.3 21.6968 13.5555 23.8268 15.5513C26.2706 17.9143 26.6834 19 28.0539 19H31.67C32.7103 19 33.2222 18.505 32.9084 17.5311C32.5782 16.5571 31.4058 15.1361 29.8702 13.4437C29.0116 12.4697 27.7567 11.4479 27.3934 10.921C26.8485 10.2504 27.0136 9.94706 27.3934 9.37227C27.4099 9.3084 31.8186 3.32101 32.2645 1.27731Z"
              fill="white"/>
    </g>

    <g id="closed">
        <path d="M7.20711 5.79289C6.81658 5.40237 6.18342 5.40237 5.79289 5.79289C5.40237 6.18342 5.40237 6.81658 5.79289 7.20711L10.5858 12L5.79289 16.7929C5.40237 17.1834 5.40237 17.8166 5.79289 18.2071C6.18342 18.5976 6.81658 18.5976 7.20711 18.2071L12 13.4142L16.7929 18.2071C17.1834 18.5976 17.8166 18.5976 18.2071 18.2071C18.5976 17.8166 18.5976 17.1834 18.2071 16.7929L13.4142 12L18.2071 7.20711C18.5976 6.81658 18.5976 6.18342 18.2071 5.79289C17.8166 5.40237 17.1834 5.40237 16.7929 5.79289L12 10.5858L7.20711 5.79289Z"
              fill="currentColor"/>
    </g>

    <!--    logo for profile-->
    <g id="birth">
        <path d="M10.0999 2.28341C10.0664 2.19333 9.93387 2.19333 9.90037 2.28341C9.70094 2.81961 9.50686 3.17083 9.35027 3.45419C9.14204 3.83101 9.00012 4.08783 9.00012 4.50011C9.00012 5.05239 9.44784 5.50011 10.0001 5.50011C10.5524 5.50011 11.0001 5.05239 11.0001 4.50011C11.0001 4.08783 10.8582 3.83101 10.65 3.45419C10.4934 3.17083 10.2993 2.81961 10.0999 2.28341Z"
              fill="#99A2AD"/>
        <path fill-rule="evenodd" clip-rule="evenodd"
              d="M17.2876 12.2001C17.0656 12.4962 16.7999 12.7252 16.5001 12.8926V13.5806C16.5001 14.1147 16.5001 14.5606 16.4704 14.9248C16.4393 15.3047 16.3722 15.6613 16.2004 15.9986C15.9367 16.516 15.516 16.9367 14.9986 17.2004C14.6613 17.3722 14.3047 17.4393 13.9248 17.4704C13.5606 17.5001 13.1147 17.5001 12.5806 17.5001H7.41969C6.88554 17.5001 6.43969 17.5001 6.07545 17.4704C5.69557 17.4393 5.33891 17.3722 5.00165 17.2004C4.4842 16.9367 4.06351 16.516 3.79985 15.9986C3.62801 15.6613 3.5609 15.3047 3.52986 14.9248C3.5001 14.5605 3.50011 14.1147 3.50012 13.5805L3.50012 12.8926C3.2003 12.7252 2.93468 12.4962 2.71262 12.2001C2.19734 11.5131 2.00012 10.5713 2.00012 9.49914C2.00012 9.49963 2.00012 9.50011 2.75012 9.50011L2.00012 9.49914L2.00012 9.49814L2.00013 9.49599L2.00017 9.49119L2.00035 9.47954C2.00053 9.47088 2.00084 9.46044 2.00136 9.44834C2.00239 9.42416 2.00427 9.39317 2.00766 9.35632C2.0144 9.2829 2.02726 9.18462 2.05193 9.06952C2.10078 8.84156 2.19915 8.53274 2.40049 8.21954C2.83265 7.54729 3.64475 7.00011 5.00012 7.00011H15.0001C16.3555 7.00011 17.1676 7.54729 17.5998 8.21954C17.8011 8.53274 17.8995 8.84156 17.9483 9.06952C17.973 9.18462 17.9858 9.2829 17.9926 9.35632C17.996 9.39317 17.9978 9.42416 17.9989 9.44834C17.9994 9.46044 17.9997 9.47088 17.9999 9.47954L18.0001 9.49119L18.0001 9.49599L18.0001 9.49814L18.0001 9.49914C18.0001 10.5713 17.8029 11.5131 17.2876 12.2001ZM3.50013 9.50974C3.50135 10.4319 3.67872 10.9882 3.91262 11.3001C4.1169 11.5725 4.43312 11.7501 5.00012 11.7501C5.46098 11.7501 5.78026 11.5343 6.09479 11.2198C6.17496 11.1396 6.2505 11.0574 6.33049 10.9696L6.34973 10.9485C6.4204 10.8708 6.5008 10.7825 6.57917 10.7042C6.66323 10.6201 6.77495 10.5165 6.90801 10.4318C7.04277 10.3461 7.24545 10.2501 7.50012 10.2501C7.75479 10.2501 7.95747 10.3461 8.09223 10.4318C8.22529 10.5165 8.33701 10.6201 8.42108 10.7042C8.49943 10.7825 8.5798 10.8708 8.65046 10.9484L8.66975 10.9696C8.74975 11.0574 8.82528 11.1396 8.90545 11.2198C9.21998 11.5343 9.53926 11.7501 10.0001 11.7501C10.461 11.7501 10.7803 11.5343 11.0948 11.2198C11.175 11.1396 11.2505 11.0574 11.3305 10.9696L11.3497 10.9485C11.4204 10.8709 11.5008 10.7825 11.5792 10.7042C11.6632 10.6201 11.7749 10.5165 11.908 10.4318C12.0428 10.3461 12.2454 10.2501 12.5001 10.2501C12.7548 10.2501 12.9575 10.3461 13.0922 10.4318C13.2253 10.5165 13.337 10.6201 13.4211 10.7042C13.4994 10.7825 13.5798 10.8708 13.6505 10.9484L13.6698 10.9696C13.7497 11.0574 13.8253 11.1396 13.9055 11.2198C14.22 11.5343 14.5393 11.7501 15.0001 11.7501C15.5671 11.7501 15.8833 11.5725 16.0876 11.3001C16.3215 10.9882 16.4989 10.4319 16.5001 9.50975L16.4997 9.50337L16.4989 9.4935C16.4968 9.47122 16.4921 9.43278 16.4816 9.38382C16.4601 9.28366 16.4179 9.15498 16.338 9.03068C16.2076 8.82793 15.8948 8.50011 15.0001 8.50011H5.00012C4.10549 8.50011 3.79259 8.82793 3.66226 9.03068C3.58235 9.15498 3.54009 9.28366 3.51863 9.38382C3.50814 9.43278 3.50342 9.47122 3.50137 9.4935C3.50068 9.50109 3.50031 9.50659 3.50013 9.50974ZM17.2501 9.50011C18.0001 9.50011 18.0001 9.49963 18.0001 9.49914L17.2501 9.50011ZM12.8448 12.2804C13.2803 12.7159 13.961 13.2501 15.0001 13.2501L15.0001 13.5501C15.0001 14.1225 14.9995 14.5068 14.9754 14.8026C14.9519 15.0898 14.91 15.227 14.8639 15.3176C14.744 15.5528 14.5528 15.744 14.3176 15.8639C14.2271 15.91 14.0898 15.9519 13.8026 15.9753C13.5068 15.9995 13.1226 16.0001 12.5501 16.0001H7.45012C6.8777 16.0001 6.49348 15.9995 6.1976 15.9753C5.91048 15.9519 5.7732 15.91 5.68263 15.8639C5.44743 15.744 5.25621 15.5528 5.13636 15.3176C5.09022 15.227 5.04834 15.0898 5.02488 14.8026C5.00071 14.5068 5.00012 14.1225 5.00012 13.5501L5.00012 13.2501C6.03926 13.2501 6.71998 12.7159 7.15545 12.2804C7.26278 12.1731 7.35912 12.0678 7.43928 11.9798L7.50012 11.9131L7.56096 11.9798C7.64112 12.0678 7.73746 12.1731 7.84479 12.2804C8.28026 12.7159 8.96098 13.2501 10.0001 13.2501C11.0393 13.2501 11.72 12.7159 12.1555 12.2804C12.2628 12.1731 12.3591 12.0678 12.4393 11.9798L12.5001 11.9131L12.561 11.9798C12.6411 12.0678 12.7375 12.1731 12.8448 12.2804Z"
              fill="#99A2AD"/>
        <path d="M6.40037 2.28341C6.43387 2.19333 6.56638 2.19333 6.59988 2.28341C6.79931 2.81961 6.99339 3.17083 7.14997 3.45419C7.3582 3.83101 7.50012 4.08783 7.50012 4.50011C7.50012 5.05239 7.05241 5.50011 6.50012 5.50011C5.94784 5.50011 5.50012 5.05239 5.50012 4.50011C5.50012 4.08783 5.64204 3.83101 5.85027 3.45419C6.00686 3.17083 6.20094 2.81961 6.40037 2.28341Z"
              fill="#99A2AD"/>
        <path d="M13.5999 2.28341C13.5664 2.19333 13.4339 2.19333 13.4004 2.28341C13.2009 2.81961 13.0069 3.17083 12.8503 3.45419C12.642 3.83101 12.5001 4.08783 12.5001 4.50011C12.5001 5.05239 12.9478 5.50011 13.5001 5.50011C14.0524 5.50011 14.5001 5.05239 14.5001 4.50011C14.5001 4.08783 14.3582 3.83101 14.15 3.45419C13.9934 3.17083 13.7993 2.81961 13.5999 2.28341Z"
              fill="#99A2AD"/>
    </g>

    <g id="country">
        <g clip-path="url(#clip0_1_3296)">
            <path d="M3.00009 11.499L2.95933 11.4989L2.77798 11.4879C2.2622 11.4316 1.78623 11.181 1.44762 10.786C0.712693 9.92855 0.811988 8.63771 1.6694 7.90279L8.21042 2.2962C9.24026 1.41347 10.7599 1.41347 11.7898 2.2962L18.3308 7.90279C18.784 8.29125 19.0448 8.85836 19.0448 9.45527C19.0448 10.5845 18.1294 11.5 17.0001 11.5V15.75C17.0001 16.9926 15.9927 18 14.7501 18H11.9501C11.4254 18 11.0001 17.5747 11.0001 17.05V14C11.0001 13.4477 10.5524 13 10.0001 13C9.44781 13 9.00009 13.4477 9.00009 14V17.05C9.00009 17.5747 8.57476 18 8.05009 18H5.25009C4.00745 18 3.00009 16.9926 3.00009 15.75V11.499ZM14.7501 16.5C15.1643 16.5 15.5001 16.1642 15.5001 15.75V10.85C15.5001 10.3806 15.8807 10 16.3501 10H17.0001C17.3009 10 17.5448 9.75611 17.5448 9.45527C17.5448 9.29624 17.4753 9.14516 17.3546 9.04167L10.8136 3.43508C10.3455 3.03385 9.65472 3.03385 9.1866 3.43508L2.64559 9.04167C2.41716 9.23746 2.39071 9.58135 2.5865 9.80977C2.67671 9.91501 2.80353 9.98178 2.90019 9.99345L3.00009 10H3.65009C4.11954 10 4.50009 10.3806 4.50009 10.85V15.75C4.50009 16.1642 4.83588 16.5 5.25009 16.5H7.50009V14C7.50009 12.6193 8.61938 11.5 10.0001 11.5C11.3808 11.5 12.5001 12.6193 12.5001 14V16.5H14.7501Z"
                  fill="#99A2AD"/>
        </g>
        <defs>
            <clipPath id="clip0_1_3296">
                <rect width="20" height="20" fill="white" transform="translate(0.00012207 0.5)"/>
            </clipPath>
        </defs>
    </g>

    <g id="city">
        <g fill="none" stroke="#99A2AD" stroke-width="1.5">
            <path d="M3 22V12c0-1.886 0-2.828.586-3.414C4.172 8 5.114 8 7 8c1.886 0 2.828 0 3.414.586C11 9.172 11 10.114 11 12"/>
            <path d="M17 22v-6c0-1.886 0-2.828-.586-3.414C15.828 12 14.886 12 13 12h-2c-1.886 0-2.828 0-3.414.586C7 13.172 7 14.114 7 16v6"/>
            <path d="M21 22V7.772c0-1.34 0-2.011-.356-2.525c-.356-.514-.984-.75-2.24-1.22c-2.455-.921-3.682-1.381-4.543-.785C13 3.84 13 5.15 13 7.772V12"/>
            <path stroke-linecap="round"
                  d="M4 8V6.5c0-.943 0-1.414.293-1.707C4.586 4.5 5.057 4.5 6 4.5h2c.943 0 1.414 0 1.707.293C10 5.086 10 5.557 10 6.5V8M7 4V2m15 20H2m8-7h4m-4 3h4"/>
        </g>
    </g>

    <!--    icons for PhotoFeed-->
    <g id="left">
        <g fill="none" stroke="currentColor" stroke-linejoin="round" stroke-width="4">
            <path d="M24 44c11.046 0 20-8.954 20-20S35.046 4 24 4S4 12.954 4 24s8.954 20 20 20Z"/>
            <path stroke-linecap="round" d="m27 33l-9-9l9-9"/>
        </g>
    </g>

    <g id="right">
        <g transform="rotate(180 24 24)">
            <g fill="none" stroke="currentColor" stroke-linejoin="round" stroke-width="4">
                <path d="M24 44c11.046 0 20-8.954 20-20S35.046 4 24 4S4 12.954 4 24s8.954 20 20 20Z"/>
                <path stroke-linecap="round" d="m27 33l-9-9l9-9"/>
            </g>
        </g>
    </g>
</svg>