<svg xmlns="http://www.w3.org/2000/svg" width="24" height="25" viewBox="0 0 24 25" fill="none">
    <g id="mypage">
        <path d="M11.3445 5.79787C11.6458 5.40071 12.2485 5.40071 12.6502 5.79787L19.781 12.7482C20.1828 13.0461 19.9819 13.344 19.5802 13.4433L18 13.5V18.5C18 19.5 18 19.5 17 19.5H14.4954C14.2158 19.5 14 19.2802 14 19.009V15.4979C14 14.3983 13.1046 13.5 12 13.5C10.8877 13.5 10 14.3945 10 15.4979V19.009C10 19.2721 9.77821 19.5 9.50461 19.5H7C6 19.5 6 19.5 6 18.5V13.5L4.51502 13.4433C4.01284 13.4433 3.81198 13.1454 4.21371 12.7482L11.3445 5.79787Z"
              fill="#2A5885"/>
    </g>

    <g id="news">
        <path fill-rule="evenodd" clip-rule="evenodd"
              d="M8.00247 19.5H4.99118C4.44956 19.5 4 19.0543 4 18.5046V9.5H6V15.9966C6 16.2671 6.2232 16.5 6.49852 16.5H7V6.50684C7 5.95077 7.45576 5.5 8.00247 5.5H17.9975C18.5512 5.5 19 5.94994 19 6.50684V18.0018C19 18.8292 18.3204 19.5 17.5045 19.5H8.00247ZM10 12.0095V8.99048C10 8.71959 10.2279 8.5 10.491 8.5H15.509C15.7802 8.5 16 8.71506 16 8.99048V12.0095C16 12.2804 15.7721 12.5 15.509 12.5H10.491C10.2198 12.5 10 12.2849 10 12.0095ZM10 14C10 14.2681 10.2198 14.5 10.491 14.5H15.509C15.7721 14.5 16 14.2761 16 14C16 13.7319 15.7802 13.5 15.509 13.5H10.491C10.2279 13.5 10 13.7239 10 14ZM10.4905 16.5C10.2196 16.5 10 16.2681 10 16C10 15.7239 10.2151 15.5 10.4905 15.5H13.5095C13.7804 15.5 14 15.7319 14 16C14 16.2761 13.7849 16.5 13.5095 16.5H10.4905Z"
              fill="#2A5885"/>
    </g>

    <g id="messages">
        <path d="M20 12.5C20 10.3945 18.4384 8.59303 16.2276 7.85596C17.0288 8.88457 17.5 10.1324 17.5 11.5C17.5 14.2047 15.6571 16.4412 13.0629 17.4394C13.3682 17.4793 13.6812 17.5 14 17.5C14.384 17.5 14.7597 17.4699 15.1236 17.4125C15.5869 18.0961 16.4302 18.5161 18.0132 18.5161C17.5754 17.8699 17.2726 17.2218 17.1869 16.7372C18.8768 15.8527 20 14.2857 20 12.5Z"
              fill="#2A5885"/>
        <path d="M5.98 17.5C7.56784 17.5 8.413 17.0858 8.8756 16.4124C9.23982 16.4699 9.61569 16.5 10 16.5C13.3137 16.5 16 14.2614 16 11.5C16 8.73858 13.3137 6.5 10 6.5C6.68629 6.5 4 8.73858 4 11.5C4 13.2848 5.12223 14.8512 6.81076 15.7359C6.73166 16.2122 6.42585 16.8571 5.98 17.5Z"
              fill="#2A5885"/>
    </g>

    <g id="friends">
        <path d="M18 17.6C18 16.2 17.4 13.5 12 13.5C6.6 13.5 6 16.1 6 17.6C6 18.3 6.36 18.5 7.8 18.5H16.32C17.76 18.5 18 18.3 18 17.6Z"
              fill="#2A5885"/>
        <path d="M9 9C9 11.3333 10.3431 12.5 12 12.5C13.6569 12.5 15 11.3333 15 9C15 6.66667 13.6569 5.5 12 5.5C10.3431 5.5 9 6.66667 9 9Z"
              fill="#2A5885"/>
    </g>

    <g id="vk">
        <path fill-rule="evenodd" clip-rule="evenodd"
              d="M32.2645 1.27731C32.4956 0.52689 32.2645 0 31.1747 0H27.5585C26.6339 0 26.2211 0.47899 25.9899 1.00588C25.9899 1.00588 24.1571 5.34874 21.5482 8.14286C20.6895 8.97311 20.3428 9.21261 19.8639 9.21261C19.6328 9.21261 19.3025 8.95714 19.3025 8.20672V1.27731C19.3025 0.383192 19.0383 0 18.2623 0H12.5821C12.0207 0 11.6575 0.431092 11.6575 0.798319C11.6575 1.64454 12.9454 1.8521 13.1105 4.19916V9.34034C13.1105 10.458 12.8959 10.6655 12.4335 10.6655C11.2282 10.6655 8.22297 6.32269 6.4727 1.34118C6.10944 0.415125 5.77921 0.0159652 4.85453 0.0159652H1.2384C0.198144 0.0159652 0 0.494957 0 1.02185C0 1.9479 1.20537 6.53025 5.69664 12.5975C8.68531 16.7328 12.8959 18.984 16.7101 18.984C19.0053 18.984 19.286 18.4891 19.286 17.6429V14.4975C19.286 13.4916 19.5007 13.3 20.2437 13.3C20.7886 13.3 21.6968 13.5555 23.8268 15.5513C26.2706 17.9143 26.6834 19 28.0539 19H31.67C32.7103 19 33.2222 18.505 32.9084 17.5311C32.5782 16.5571 31.4058 15.1361 29.8702 13.4437C29.0116 12.4697 27.7567 11.4479 27.3934 10.921C26.8485 10.2504 27.0136 9.94706 27.3934 9.37227C27.4099 9.3084 31.8186 3.32101 32.2645 1.27731Z"
              fill="white"/>
    </g>

    <g id="delete">
        <path d="M7.20711 5.79289C6.81658 5.40237 6.18342 5.40237 5.79289 5.79289C5.40237 6.18342 5.40237 6.81658 5.79289 7.20711L10.5858 12L5.79289 16.7929C5.40237 17.1834 5.40237 17.8166 5.79289 18.2071C6.18342 18.5976 6.81658 18.5976 7.20711 18.2071L12 13.4142L16.7929 18.2071C17.1834 18.5976 17.8166 18.5976 18.2071 18.2071C18.5976 17.8166 18.5976 17.1834 18.2071 16.7929L13.4142 12L18.2071 7.20711C18.5976 6.81658 18.5976 6.18342 18.2071 5.79289C17.8166 5.40237 17.1834 5.40237 16.7929 5.79289L12 10.5858L7.20711 5.79289Z"
              fill="currentColor"/>
    </g>
</svg>